<svg width="55" height="55" viewBox="0 0 55 55" fill="none" xmlns="http://www.w3.org/2000/svg">
<path fill-rule="evenodd" clip-rule="evenodd" d="M27.5 0C12.3122 0 0 12.3122 0 27.5C0 42.6878 12.3122 55 27.5 55C42.6878 55 55 42.6878 55 27.5C55 12.3122 42.6878 0 27.5 0ZM22.108 20.2592V15.1649C22.108 15.146 22.1079 15.1248 22.1078 15.1015C22.1032 13.9825 22.0785 8 30.7503 8H37V14.4846H32.4025C31.4928 14.4846 30.5749 15.341 30.5749 15.9769V20.2369H36.9878C36.7308 23.5033 36.2004 26.4898 36.2004 26.4898H30.5402V45H22.108V26.488H18V20.2592H22.108Z" fill="#fff"/>
</svg>
