<svg width="55" height="55" viewBox="0 0 55 55" fill="none" xmlns="http://www.w3.org/2000/svg">
<path fill-rule="evenodd" clip-rule="evenodd" d="M27.5 0C12.3122 0 0 12.3122 0 27.5C0 42.6878 12.3122 55 27.5 55C42.6878 55 55 42.6878 55 27.5C55 12.3122 42.6878 0 27.5 0ZM21.6596 27.5C21.6596 24.2866 24.2819 21.6642 27.4953 21.6642C30.7087 21.6642 33.331 24.2866 33.331 27.5C33.331 30.7134 30.7087 33.3358 27.4953 33.3358C24.2819 33.3358 21.6596 30.7134 21.6596 27.5ZM44.9987 26.6159C44.9984 26.9103 44.998 27.205 44.998 27.5C44.998 27.8299 44.9985 28.1593 44.999 28.4884C45.0021 30.5707 45.0052 32.6406 44.8842 34.7236C44.7485 37.5255 44.1137 40.0078 42.0605 42.0611C40.0116 44.11 37.525 44.7492 34.7232 44.8849C32.6054 45.004 30.5011 45.0017 28.3836 44.9993C28.0893 44.999 27.7946 44.9987 27.4997 44.9987C27.2053 44.9987 26.9112 44.999 26.6173 44.9993C24.5027 45.0017 22.3979 45.004 20.2762 44.8849C17.4743 44.7492 14.9921 44.1143 12.9389 42.0611C10.89 40.0122 10.2508 37.5255 10.1151 34.7236C9.99597 32.6057 9.99831 30.4979 10.0007 28.3824C10.001 28.0884 10.0013 27.7943 10.0013 27.5C10.0013 27.2056 10.001 26.9115 10.0006 26.6176C9.99831 24.503 9.99597 22.3981 10.1151 20.2764C10.2508 17.4745 10.8856 14.9922 12.9389 12.9389C14.9877 10.89 17.4743 10.2508 20.2762 10.1151C22.394 9.99598 24.4983 9.99831 26.6157 10.0006C26.9101 10.001 27.2047 10.0013 27.4997 10.0013C27.794 10.0013 28.0881 10.001 28.382 10.0006C30.4967 9.99831 32.6015 9.99597 34.7232 10.1151C37.525 10.2508 40.0073 10.8856 42.0605 12.9389C44.1093 14.9878 44.7485 17.4745 44.8842 20.2764C45.0034 22.3942 45.001 24.4985 44.9987 26.6159ZM18.5163 27.5C18.5163 32.469 22.5264 36.4792 27.4953 36.4792C32.4642 36.4792 36.4743 32.469 36.4743 27.5C36.4743 22.531 32.4642 18.5208 27.4953 18.5208C22.5264 18.5208 18.5163 22.531 18.5163 27.5ZM34.7451 18.1531C34.7451 19.3132 35.6819 20.2501 36.8421 20.2501C37.1175 20.2504 37.3904 20.1964 37.645 20.0912C37.8995 19.9859 38.1308 19.8315 38.3256 19.6367C38.5204 19.4419 38.6749 19.2106 38.7801 18.956C38.8854 18.7014 38.9394 18.4285 38.9391 18.1531C38.9391 16.9929 38.0022 16.056 36.8421 16.056C35.6819 16.056 34.7451 16.9929 34.7451 18.1531Z" fill="#fff"/>
</svg>
