<svg width="55" height="55" viewBox="0 0 55 55" fill="black" xmlns="http://www.w3.org/2000/svg">
<path fill-rule="evenodd" clip-rule="evenodd" d="M27.5 0C12.3122 0 0 12.3122 0 27.5C0 42.6878 12.3122 55 27.5 55C42.6878 55 55 42.6878 55 27.5C55 12.3122 42.6878 0 27.5 0ZM34.6197 10C34.6191 12.0553 35.3679 14.0408 36.7266 15.5868C39.4298 18.6972 43.1667 18.5189 43.1667 18.5189V24.6405C40.1004 24.6458 37.1102 23.6893 34.6197 21.9066V34.3679C34.6197 40.6084 29.5511 45.6603 23.3098 45.6603C17.486 45.6603 12 40.965 12 34.3679C12 27.5924 18.0028 22.283 24.8602 23.1943V29.4547C21.4613 28.4047 18.1618 30.9603 18.1618 34.3679C18.1618 37.2207 20.5072 39.5188 23.3297 39.5188C24.6643 39.5186 25.9468 39.0023 26.9071 38.0784C27.8673 37.1546 28.4304 35.8954 28.4778 34.566V10H34.6197Z" fill="#F8F8F8"/>
</svg>
